# xmcd
#
# Track frame offsets:
#	150
#	14955
#	26677
#	44375
#	67195
#	84530
#	102560
#	117630
#	131895
#	152690
#	170722
#
# Disc length: 2537 seconds
#
# Revision: 2
# Processed by: cddbd v1.4PL0 Copyright (c) Steve Scherf et al.
# Submitted via: EZCDDA 4.3.3.2
#
DISCID=a709e70b
DTITLE=Mary Chapin Carpenter - Shooting Straight in the Dark
DYEAR=1900
DGENRE=
TTITLE0=Going Out Tonight
TTITLE1=Right Now
TTITLE2=The More Things Change
TTITLE3=When Shes Gone
TTITLE4=Middle Ground
TTITLE5=Can`t Take Love for Granted
TTITLE6=Down at the Twist and Shout
TTITLE7=Halley Came to Jackson
TTITLE8=What You Didnt Say
TTITLE9=You Win Again
TTITLE10=The Moon and St Christopher
EXTD=
EXTT0=
EXTT1=
EXTT2=
EXTT3=
EXTT4=
EXTT5=
EXTT6=
EXTT7=
EXTT8=
EXTT9=
EXTT10=
PLAYORDER=
